Coordinates
version=1
nRows=8
nColumns=36
inDegrees=yes

Units are S.I. units (second, meters, Newtons, ...)
If the header above contains a line with 'inDegrees', this indicates whether rotational values are in degrees (yes) or radians (no).

endheader
time	pelvis_tilt	pelvis_list	pelvis_rotation	pelvis_tx	pelvis_ty	pelvis_tz	hip_flexion_r	hip_adduction_r	hip_rotation_r	knee_angle_r	knee_angle_r_beta	ankle_angle_r	subtalar_angle_r	mtp_angle_r	hip_flexion_l	hip_adduction_l	hip_rotation_l	knee_angle_l	knee_angle_l_beta	ankle_angle_l	subtalar_angle_l	mtp_angle_l	lumbar_extension	lumbar_bending	lumbar_rotation	arm_flex_r	arm_add_r	arm_rot_r	elbow_flex_r	pro_sup_r	arm_flex_l	arm_add_l	arm_rot_l	elbow_flex_l	pro_sup_l
      3.15000000	     13.43544891	     10.74453288	    -83.32070829	      0.92880280	      1.01892167	      0.34867390	     11.05905692	    -20.63213667	     39.76370891	      2.15107590	      0.03754336	     28.58058292	     34.73076606	     -7.49999987	     37.24812015	     -9.12329857	    -30.90753030	     36.76730297	      0.64171049	     30.68111886	    -34.50808940	     -7.49999987	    -10.01295951	    -11.49410768	    -13.93528801	     12.96320744	    -20.40825507	     82.01391204	     21.00198305	     62.01484768	      7.62257638	    -21.60485263	     21.58830011	     16.95322020	     32.67564836
      3.16666670	     14.63820957	     10.84292004	    -83.47178046	      0.93808230	      1.01788758	      0.35244280	     10.85032359	    -22.61275562	     39.77675567	      1.90816649	      0.03330379	     27.68877361	     34.74316390	     -7.49999987	     37.24026887	     -7.48603930	    -29.93816749	     34.99919521	      0.61085119	     33.13979656	    -34.53208163	     -7.49999987	    -10.79653992	    -12.50370401	    -15.12960713	     13.12502934	    -19.38511813	     81.00102109	     21.01009383	     61.94589353	      7.70215851	    -21.37954820	     21.80575748	     17.31281032	     36.09332615
      3.18333330	     15.13315030	     11.67071752	    -83.45731834	      0.94618133	      1.00493988	      0.35827088	     11.55192289	    -23.86758322	     39.78429325	      2.05314824	      0.03583420	     28.01237237	     34.75213189	     -7.49999987	     38.97707201	     -6.62227112	    -28.18592836	     35.34361113	      0.61686238	     38.01542402	    -34.53655062	     -7.49999987	    -10.51147246	    -12.87330102	    -15.96732521	     12.80417990	    -19.00484694	     78.92938015	     21.71876589	     62.25949036	      7.56898315	    -21.22514346	     22.43736697	     17.92798044	     38.84274413
      3.20000000	     15.09554081	     12.89654604	    -83.36916577	      0.95279024	      1.00342195	      0.36232482	     12.59048913	    -24.45072721	     39.78313307	      2.23944438	      0.03908568	     28.42534614	     34.75380999	     -7.49999987	     41.51321104	     -6.37710260	    -26.02596234	     37.06794739	      0.64695773	     43.39640827	    -34.54071052	     -7.49999987	     -9.29844880	    -12.87568504	    -16.57630214	     12.47339032	    -18.85380870	     77.93469696	     22.41139782	     62.08806459	      6.93451020	    -21.04964993	     22.19252317	     18.95509233	     39.64981671
      3.21666670	     15.04863109	     13.61988031	    -83.29236877	      0.96076225	      1.00380465	      0.36617491	     13.14192341	    -24.97793331	     39.78679573	      2.48455054	      0.04336359	     28.86342316	     34.76013592	     -7.49999987	     43.40273019	     -6.03632054	    -23.98147461	     39.08460755	      0.68215509	     47.36935469	    -34.55662708	     -7.49999987	     -8.74520429	    -12.86679315	    -16.51890542	     11.90476528	    -19.17033899	     75.27684675	     23.80903430	     64.69644655	      7.63374611	    -21.03962230	     27.80663488	     18.63748976	     38.58486696
      3.23333330	     15.29623677	     14.06680489	    -83.25758300	      0.96830051	      1.00480937	      0.37308110	     13.11070133	    -25.76796633	     39.78431252	      2.49052255	      0.04346782	     29.06629653	     34.76087807	     -7.49999987	     44.18005591	     -5.48438405	    -23.48940995	     40.46286545	      0.70621023	     48.90286863	    -34.61154519	     -7.49999987	     -8.39322955	    -13.26134143	    -16.80722300	     11.88979557	    -19.20975812	     75.54591082	     24.57859864	     64.80754077	      7.45537329	    -21.07838268	     29.41596958	     19.12124375	     40.06649033
      3.25000000	     15.69715454	     14.01629739	    -83.37375834	      0.97624302	      1.00586393	      0.38127061	     12.50522068	    -26.61633109	     39.78435582	      2.47776157	      0.04324510	     29.35746095	     34.76473967	     -7.49999987	     43.94185009	     -4.83791533	    -23.64339745	     41.68926286	      0.72761490	     49.38251777	    -34.66899611	     -7.49999987	     -8.51016756	    -13.83931060	    -16.89630820	     11.85134544	    -19.31075305	     75.81492524	     25.30410432	     64.57940872	      7.25272654	    -21.05985026	     29.82654061	     19.39441421	     42.31011107
      3.26666670	     15.94331500	     14.62458790	    -83.48981231	      0.98365355	      0.99866761	      0.38759039	     12.76535671	    -27.31234653	     39.77887364	      2.78811819	      0.04866184	     29.95353892	     34.76684888	     -7.49999987	     44.41542248	     -4.34256190	    -23.86310743	     43.12783840	      0.75272278	     49.56597838	    -34.71054658	     -7.49999987	     -7.73385633	    -14.47296496	    -16.94130006	     11.53763622	    -19.46216099	     75.72814685	     25.96963070	     64.19781165	      6.61229664	    -21.26956876	     29.54426170	     20.11118398	     43.97665399
